<svg width="20" height="20" viewBox="0 0 20 20" fill="none" xmlns="http://www.w3.org/2000/svg">
<path fill-rule="evenodd" clip-rule="evenodd" d="M6.23859 17.9167H13.1951C15.7504 17.9167 17.7107 16.9937 17.1539 13.279L16.5056 8.24466C16.1623 6.39111 14.98 5.68173 13.9426 5.68173H5.46056C4.40793 5.68173 3.29427 6.44451 2.89763 8.24466L2.24927 13.279C1.77635 16.5742 3.68329 17.9167 6.23859 17.9167Z" stroke="#E4E1F2" stroke-width="1.5" stroke-linecap="round" stroke-linejoin="round"/>
<path d="M6.12416 5.49865C6.12416 3.51026 7.73607 1.89835 9.72447 1.89835V1.89835C10.682 1.89429 11.6016 2.27182 12.2801 2.94744C12.9586 3.62307 13.34 4.54114 13.34 5.49865V5.49865" stroke="#E4E1F2" stroke-width="1.5" stroke-linecap="round" stroke-linejoin="round"/>
<path d="M7.25311 9.25151H7.29125" stroke="#E4E1F2" stroke-width="1.5" stroke-linecap="round" stroke-linejoin="round"/>
<path d="M12.112 9.25151H12.1501" stroke="#E4E1F2" stroke-width="1.5" stroke-linecap="round" stroke-linejoin="round"/>
</svg>
